<?xml version="1.0" encoding="utf-8"?>
<!-- Generator: Adobe Illustrator 16.0.4, SVG Export Plug-In . SVG Version: 6.00 Build 0)  -->
<svg version="1.2" baseProfile="tiny" id="Ebene_1" xmlns="http://www.w3.org/2000/svg" xmlns:xlink="http://www.w3.org/1999/xlink"
	 x="0px" y="0px" width="1297.885px" height="225.022px" viewBox="0 0 1297.885 225.022" xml:space="preserve">
<rect x="232.152" y="19.361" fill="#66FF86" width="1056.758" height="190.492"/>
<g>
	<path fill="#1D1D1B" d="M379.077,110.07v38.933h-17.638v-6.891c-5.269,4.49-11.448,7.152-27.427,7.152
		c-34.348,0-45.284-13.648-45.284-32.908c0-23.661,20.563-34.427,44.706-34.427c27.612,0,37.15,6.938,43.079,18.945l-20.569,6.932
		c-2.617-3.715-8.723-6.932-22.688-6.932c-18.612,0-22.504,6.577-22.504,15.689c0,8.289,3.411,14.611,22.504,14.611
		c13.688,0,16.268-2.688,19.04-5.459H324.95V110.07H379.077z"/>
	<path fill="#1D1D1B" d="M430.942,82.467c6.279,0,28.635,0.888,28.635,25.517c0,24.625-21.015,27.507-27.875,27.507
		c-5.475,0-19.801,0-25.363,0v13.49h-22.02V82.467H430.942z M438.975,108.716c0-6.435-6.015-6.665-9.105-6.665
		c-3.093,0-23.531,0-23.531,0v13.858c0,0,20.533,0,23.905,0C433.622,115.909,438.975,115.154,438.975,108.716z"/>
	<path fill="#1D1D1B" d="M519.108,115.724l29.918,33.258h-29.721l-17.291-18.891l-17.447,18.891h-29.722l30.196-33.258
		l-29.918-33.251h29.727l17.285,18.889l17.447-18.889h29.721L519.108,115.724z"/>
	<path fill="#1D1D1B" d="M663.756,148.981H638.19l-5-11.135h-32.855l-5.004,11.135h-25.428l29.775-66.281h34.303L663.756,148.981z
		 M625.327,118.634l-8.57-17.353l-8.566,17.353H625.327z"/>
	<path fill="#1D1D1B" d="M744.363,144.667l-0.004,4.314h-22.012c0,0,0-9.967,0-18.092c0-8.131,0.539-20.338-14.572-20.338
		c-8.889,0-12.965,3.05-16.477,6.743v31.688h-22.223V94.156h22.223v7.545c6.064-4.26,11.291-8.018,23.801-8.018
		c10.273,0,21.525,1.31,26.037,11.652C744.381,112.787,744.375,124.112,744.363,144.667z"/>
	<path fill="#1D1D1B" d="M771.902,79.191v10.686h-22.016V79.191H771.902z M771.902,94.156v54.826h-22.016V94.156H771.902z"/>
	<path fill="#1D1D1B" d="M897.547,144.702l-0.004,4.279h-22.016c0,0,0-10.23,0-18.301c0-8.062,2.76-20.129-11.449-20.129
		c-6.82,0-13.508,3.785-16.35,7.258c0.539,6.723,0.533,15.412,0.525,26.893v4.279h-21.766c0,0,0-10.23,0-18.301
		c0-8.062,2.51-20.129-11.699-20.129c-7.154,0-12.27,3.373-15.316,7.67v30.76h-22.02V94.156h22.02v6.693
		c5.637-3.798,11.881-7.166,22.826-7.166c8.908,0,17.27,1.271,21.842,9.439c5.732-4.887,14.4-9.439,27.443-9.439
		c9.66,0,18.684,1.379,22.926,11.641C897.562,112.718,897.555,124.302,897.547,144.702z"/>
	<path fill="#1D1D1B" d="M959.057,149.044c0-1.756-0.008-3.408-0.023-5.012c-5.215,3.088-13.543,5.988-23.25,5.988
		c-14.594,0-35.002-0.635-35.002-17.939c0-12.146,17.068-16.48,34.59-16.477c9.486,0,16.145,1.588,21.287,3.461
		c-2.76-8.005-8.586-9.181-20.65-9.181c-17.926,0-28.008,3.844-28.111,3.882l-4.988-14.97c0.494-0.184,14.291-6.002,34.41-6.002
		c10.781,0,33.395,1.482,39.285,14.947c3.967,9.066,4.252,23.556,4.252,41.302H959.057z M957.537,131.911
		c0.008-0.539,0.031-0.578,0-0.992c-0.562-0.535-2.189-2.516-18.164-2.516c-10.686,0-14.66,1.203-14.66,3.697
		c0,3.48,7.098,4.018,13.553,4.018C948.254,136.118,956.602,133.38,957.537,131.911z"/>
	<path fill="#1D1D1B" d="M1039.432,127.692l7.822,17.049c0,0-12.775,4.523-34.771,4.523c-17.355,0-20.605-3.465-20.605-27.943
		v-10.994h-10.93V93.886h10.93V82.429h22.02v11.457h26.723v16.441h-26.723v10.994c0,0-0.697,9.699,7.572,9.699
		C1029.918,131.021,1039.436,127.692,1039.432,127.692z"/>
	<path fill="#1D1D1B" d="M1125.471,121.673c0,21.252-15.797,27.875-40.801,27.875c-25.602,0-40.088-6.781-40.088-27.875
		c0-22.74,18.256-27.879,39.541-27.879C1105.656,93.793,1125.471,98.246,1125.471,121.673z M1102.021,121.673
		c0-10.373-10.467-12.347-17.375-12.347s-16.615,2.587-16.615,11.896c0,8.658,5.309,12.799,16.846,12.799
		C1095.383,134.021,1102.021,131.087,1102.021,121.673z"/>
	<path fill="#1D1D1B" d="M1196.814,100.066l-8.234,16.777c0,0-8.119-4.029-16.986-4.583c-12.23-0.764-17.498,4.957-20.545,7.894
		v28.828h-22.02V94.109h1.525V94.08h20.484v0.029h0.01v7.611c3.24-4.049,10.049-7.583,23.271-7.583
		C1189.471,94.137,1196.814,100.066,1196.814,100.066z"/>
</g>
<rect x="17.14" y="19.888" fill="#66FF86" width="190" height="190"/>
<g>
	<g>
		<path fill="#1D1D1B" d="M112.143,169.81c-30.285,0-54.924-24.635-54.924-54.918c0-30.284,24.639-54.925,54.924-54.925
			c30.282,0,54.918,24.641,54.918,54.925C167.061,145.175,142.425,169.81,112.143,169.81z M112.143,70.479
			c-24.49,0-44.408,19.923-44.408,44.412c0,24.487,19.918,44.407,44.408,44.407c24.486,0,44.406-19.92,44.406-44.407
			C156.549,90.402,136.629,70.479,112.143,70.479z"/>
	</g>
	<polygon fill="#1D1D1B" points="68.304,112.738 141.578,85.453 114.292,158.729 99.176,127.519 	"/>
</g>
<rect x="24.61" y="187.192" fill="#FFFFFF" width="20.548" height="14.844"/>
<rect x="55.432" y="187.192" fill="#FFFFFF" width="20.549" height="14.844"/>
<rect x="86.254" y="187.192" fill="#FFFFFF" width="20.548" height="14.844"/>
<rect x="117.077" y="187.192" fill="#FFFFFF" width="20.549" height="14.844"/>
<rect x="147.901" y="187.192" fill="#FFFFFF" width="20.547" height="14.844"/>
<rect x="178.721" y="187.192" fill="#FFFFFF" width="20.549" height="14.844"/>
<rect x="24.61" y="28.861" fill="#FFFFFF" width="20.548" height="14.844"/>
<rect x="55.432" y="28.861" fill="#FFFFFF" width="20.549" height="14.844"/>
<rect x="86.254" y="28.861" fill="#FFFFFF" width="20.548" height="14.844"/>
<rect x="117.077" y="28.861" fill="#FFFFFF" width="20.549" height="14.844"/>
<rect x="147.901" y="28.861" fill="#FFFFFF" width="20.547" height="14.844"/>
<rect x="178.721" y="28.861" fill="#FFFFFF" width="20.549" height="14.844"/>
<rect x="241.605" y="187.192" fill="#FFFFFF" width="20.548" height="14.844"/>
<rect x="272.427" y="187.192" fill="#FFFFFF" width="20.549" height="14.844"/>
<rect x="303.25" y="187.192" fill="#FFFFFF" width="20.548" height="14.844"/>
<rect x="334.072" y="187.192" fill="#FFFFFF" width="20.549" height="14.844"/>
<rect x="364.896" y="187.192" fill="#FFFFFF" width="20.547" height="14.844"/>
<rect x="395.716" y="187.192" fill="#FFFFFF" width="20.549" height="14.844"/>
<rect x="241.605" y="28.861" fill="#FFFFFF" width="20.548" height="14.844"/>
<rect x="272.427" y="28.861" fill="#FFFFFF" width="20.549" height="14.844"/>
<rect x="303.25" y="28.861" fill="#FFFFFF" width="20.548" height="14.844"/>
<rect x="334.072" y="28.861" fill="#FFFFFF" width="20.549" height="14.844"/>
<rect x="364.896" y="28.861" fill="#FFFFFF" width="20.547" height="14.844"/>
<rect x="395.716" y="28.861" fill="#FFFFFF" width="20.549" height="14.844"/>
<rect x="426.072" y="187.192" fill="#FFFFFF" width="20.548" height="14.844"/>
<rect x="456.894" y="187.192" fill="#FFFFFF" width="20.549" height="14.844"/>
<rect x="487.716" y="187.192" fill="#FFFFFF" width="20.548" height="14.844"/>
<rect x="518.539" y="187.192" fill="#FFFFFF" width="20.549" height="14.844"/>
<rect x="549.363" y="187.192" fill="#FFFFFF" width="20.547" height="14.844"/>
<rect x="580.183" y="187.192" fill="#FFFFFF" width="20.549" height="14.844"/>
<rect x="426.072" y="28.861" fill="#FFFFFF" width="20.548" height="14.844"/>
<rect x="456.894" y="28.861" fill="#FFFFFF" width="20.549" height="14.844"/>
<rect x="487.716" y="28.861" fill="#FFFFFF" width="20.548" height="14.844"/>
<rect x="518.539" y="28.861" fill="#FFFFFF" width="20.549" height="14.844"/>
<rect x="549.363" y="28.861" fill="#FFFFFF" width="20.547" height="14.844"/>
<rect x="580.183" y="28.861" fill="#FFFFFF" width="20.549" height="14.844"/>
<rect x="612.087" y="187.192" fill="#FFFFFF" width="20.548" height="14.844"/>
<rect x="642.91" y="187.192" fill="#FFFFFF" width="20.549" height="14.844"/>
<rect x="673.732" y="187.192" fill="#FFFFFF" width="20.547" height="14.844"/>
<rect x="704.555" y="187.192" fill="#FFFFFF" width="20.549" height="14.844"/>
<rect x="735.379" y="187.192" fill="#FFFFFF" width="20.547" height="14.844"/>
<rect x="766.199" y="187.192" fill="#FFFFFF" width="20.549" height="14.844"/>
<rect x="612.087" y="28.861" fill="#FFFFFF" width="20.548" height="14.844"/>
<rect x="642.91" y="28.861" fill="#FFFFFF" width="20.549" height="14.844"/>
<rect x="673.732" y="28.861" fill="#FFFFFF" width="20.547" height="14.844"/>
<rect x="704.555" y="28.861" fill="#FFFFFF" width="20.549" height="14.844"/>
<rect x="735.379" y="28.861" fill="#FFFFFF" width="20.547" height="14.844"/>
<rect x="766.199" y="28.861" fill="#FFFFFF" width="20.549" height="14.844"/>
<rect x="796.555" y="187.192" fill="#FFFFFF" width="20.547" height="14.844"/>
<rect x="827.377" y="187.192" fill="#FFFFFF" width="20.549" height="14.844"/>
<rect x="858.199" y="187.192" fill="#FFFFFF" width="20.547" height="14.844"/>
<rect x="889.021" y="187.192" fill="#FFFFFF" width="20.549" height="14.844"/>
<rect x="919.846" y="187.192" fill="#FFFFFF" width="20.547" height="14.844"/>
<rect x="950.666" y="187.192" fill="#FFFFFF" width="20.549" height="14.844"/>
<rect x="796.555" y="28.861" fill="#FFFFFF" width="20.547" height="14.844"/>
<rect x="827.377" y="28.861" fill="#FFFFFF" width="20.549" height="14.844"/>
<rect x="858.199" y="28.861" fill="#FFFFFF" width="20.547" height="14.844"/>
<rect x="889.021" y="28.861" fill="#FFFFFF" width="20.549" height="14.844"/>
<rect x="919.846" y="28.861" fill="#FFFFFF" width="20.547" height="14.844"/>
<rect x="950.666" y="28.861" fill="#FFFFFF" width="20.549" height="14.844"/>
<rect x="982.57" y="187.192" fill="#FFFFFF" width="20.547" height="14.844"/>
<rect x="1013.393" y="187.192" fill="#FFFFFF" width="20.549" height="14.844"/>
<rect x="1044.215" y="187.192" fill="#FFFFFF" width="20.547" height="14.844"/>
<rect x="1075.037" y="187.192" fill="#FFFFFF" width="20.549" height="14.844"/>
<rect x="1105.861" y="187.192" fill="#FFFFFF" width="20.547" height="14.844"/>
<rect x="1136.682" y="187.192" fill="#FFFFFF" width="20.549" height="14.844"/>
<rect x="982.57" y="28.861" fill="#FFFFFF" width="20.547" height="14.844"/>
<rect x="1013.393" y="28.861" fill="#FFFFFF" width="20.549" height="14.844"/>
<rect x="1044.215" y="28.861" fill="#FFFFFF" width="20.547" height="14.844"/>
<rect x="1075.037" y="28.861" fill="#FFFFFF" width="20.549" height="14.844"/>
<rect x="1105.861" y="28.861" fill="#FFFFFF" width="20.547" height="14.844"/>
<rect x="1136.682" y="28.861" fill="#FFFFFF" width="20.549" height="14.844"/>
<rect x="1167.037" y="187.192" fill="#FFFFFF" width="20.547" height="14.844"/>
<rect x="1197.859" y="187.192" fill="#FFFFFF" width="20.549" height="14.844"/>
<rect x="1228.682" y="187.192" fill="#FFFFFF" width="20.547" height="14.844"/>
<rect x="1259.504" y="187.192" fill="#FFFFFF" width="20.549" height="14.844"/>
<rect x="1167.037" y="28.861" fill="#FFFFFF" width="20.547" height="14.844"/>
<rect x="1197.859" y="28.861" fill="#FFFFFF" width="20.549" height="14.844"/>
<rect x="1228.682" y="28.861" fill="#FFFFFF" width="20.547" height="14.844"/>
<rect x="1259.504" y="28.861" fill="#FFFFFF" width="20.549" height="14.844"/>
</svg>
